<svg xmlns="http://www.w3.org/2000/svg" xmlns:xlink="http://www.w3.org/1999/xlink" version="1.1" x="0px" y="0px" viewBox="0 0 64 64" style="enable-background:new 0 0 64 64;" xml:space="preserve"><style type="text/css">
	.Graphic_x0020_Style_x0020_2{fill:none;}
	.st0{display:none;}
	.st1{display:inline;}
	.st2{fill:#FFCA00;}
	.st3{fill:#FF1D17;}
	.st4{fill:#009FFF;}
	.st5{fill:none;stroke:#000000;stroke-width:1.4;stroke-miterlimit:10;}
	.st6{fill:#192B2A;stroke:#F9BD00;stroke-width:1.4;stroke-miterlimit:10;}
	.st7{display:inline;fill:#192B2A;stroke:#F9BD00;stroke-width:1.4;stroke-miterlimit:10;}
	.st8{fill:#192B2A;}
	.st9{fill:#F9BD00;}
	.st10{fill:none;}
</style><g class="st0"><g class="st1"><g><g><path d="M63.36,19.2c0,0-0.63-4.41-2.54-6.35c-2.43-2.55-5.16-2.56-6.41-2.71c-8.96-0.65-22.39-0.65-22.39-0.65h-0.03      c0,0-13.43,0-22.39,0.65c-1.25,0.15-3.98,0.16-6.41,2.71c-1.92,1.94-2.54,6.35-2.54,6.35S0,24.38,0,29.56v4.86      c0,5.18,0.64,10.36,0.64,10.36s0.62,4.41,2.54,6.35c2.43,2.55,5.63,2.47,7.06,2.74C15.36,54.35,32,54.51,32,54.51      s13.45-0.02,22.4-0.67c1.25-0.15,3.98-0.16,6.41-2.71c1.92-1.94,2.54-6.35,2.54-6.35S64,39.6,64,34.42v-4.86      C64,24.38,63.36,19.2,63.36,19.2z M25.39,40.3l0-17.98l17.29,9.02L25.39,40.3z"/></g></g></g></g><g class="st0"><g class="st1"><g><g><path d="M63.36,19.2c0,0-0.63-4.41-2.54-6.35c-2.43-2.55-5.16-2.56-6.41-2.71c-8.96-0.65-22.39-0.65-22.39-0.65h-0.03      c0,0-13.43,0-22.39,0.65c-1.25,0.15-3.98,0.16-6.41,2.71c-1.92,1.94-2.54,6.35-2.54,6.35S0,24.38,0,29.56v4.86      c0,5.18,0.64,10.36,0.64,10.36s0.62,4.41,2.54,6.35c2.43,2.55,5.63,2.47,7.06,2.74C15.36,54.35,32,54.51,32,54.51      s13.45-0.02,22.4-0.67c1.25-0.15,3.98-0.16,6.41-2.71c1.92-1.94,2.54-6.35,2.54-6.35S64,39.6,64,34.42v-4.86      C64,24.38,63.36,19.2,63.36,19.2z M25.39,40.3l0-17.98l17.29,9.02L25.39,40.3z"/></g></g></g></g><g><g><g><g><path class="st5" d="M62.67,19.49c0,0-0.61-4.31-2.49-6.21c-2.38-2.49-5.05-2.5-6.27-2.65C45.15,10,32.01,10,32.01,10h-0.03      c0,0-13.14,0-21.9,0.63c-1.22,0.15-3.89,0.16-6.27,2.65c-1.88,1.9-2.49,6.21-2.49,6.21S0.7,24.55,0.7,29.62v4.75      c0,5.06,0.63,10.12,0.63,10.12s0.61,4.31,2.49,6.21c2.38,2.49,5.51,2.41,6.9,2.67C15.72,53.85,32,54,32,54      s13.15-0.02,21.91-0.65c1.22-0.15,3.89-0.16,6.27-2.65c1.88-1.9,2.49-6.21,2.49-6.21s0.63-5.06,0.63-10.12v-4.75      C63.3,24.55,62.67,19.49,62.67,19.49z M25.54,40.11l0-17.58l16.91,8.82L25.54,40.11z"/></g></g></g></g><g class="st0"><g class="st1"><g><g><path class="st6" d="M62.67,19.49c0,0-0.61-4.31-2.49-6.21c-2.38-2.49-5.05-2.5-6.27-2.65C45.15,10,32.01,10,32.01,10h-0.03      c0,0-13.14,0-21.9,0.63c-1.22,0.15-3.89,0.16-6.27,2.65c-1.88,1.9-2.49,6.21-2.49,6.21S0.7,24.55,0.7,29.62v4.75      c0,5.06,0.63,10.12,0.63,10.12s0.61,4.31,2.49,6.21c2.38,2.49,5.51,2.41,6.9,2.67C15.72,53.85,32,54,32,54      s13.15-0.02,21.91-0.65c1.22-0.15,3.89-0.16,6.27-2.65c1.88-1.9,2.49-6.21,2.49-6.21s0.63-5.06,0.63-10.12v-4.75      C63.3,24.55,62.67,19.49,62.67,19.49z M25.54,40.11l0-17.58l16.91,8.82L25.54,40.11z"/></g></g></g></g><g class="st0"><g class="st1"><g><g><path d="M63.36,19.2c0,0-0.63-4.41-2.54-6.35c-2.43-2.55-5.16-2.56-6.41-2.71c-8.96-0.65-22.39-0.65-22.39-0.65h-0.03      c0,0-13.43,0-22.39,0.65c-1.25,0.15-3.98,0.16-6.41,2.71c-1.92,1.94-2.54,6.35-2.54,6.35S0,24.38,0,29.56v4.86      c0,5.18,0.64,10.36,0.64,10.36s0.62,4.41,2.54,6.35c2.43,2.55,5.63,2.47,7.06,2.74C15.36,54.35,32,54.51,32,54.51      s13.45-0.02,22.4-0.67c1.25-0.15,3.98-0.16,6.41-2.71c1.92-1.94,2.54-6.35,2.54-6.35S64,39.6,64,34.42v-4.86      C64,24.38,63.36,19.2,63.36,19.2z M25.39,40.3l0-17.98l17.29,9.02L25.39,40.3z"/></g></g></g></g></svg>