<svg width="64" height="64" xmlns="http://www.w3.org/2000/svg">

 <g>
  <title>background</title>
  <rect fill="none" id="canvas_background" height="66" width="66" y="-1" x="-1"/>
 </g>
 <g>
  <title>Layer 1</title>
  <path id="svg_1" d="m52.188498,4.937498l-40.378,0c-3.79,0 -6.873,3.083 -6.873,6.873l0,40.379c0,3.789 3.083,6.873 6.873,6.873l40.379,0c3.791,0 6.873,-3.084 6.873,-6.873l0,-40.379c0,-3.79 -3.084,-6.873 -6.874,-6.873zm4.874,47.25c0,2.688 -2.187,4.875 -4.873,4.875l-40.379,0c-2.687,0 -4.873,-2.188 -4.873,-4.875l0,-40.377c0,-2.687 2.187,-4.873 4.873,-4.873l40.379,0c2.688,0 4.873,2.187 4.873,4.873l0,40.377zm-37.5,-26.372l0,-13.363c0,-0.553 -0.447,-1 -1,-1c-0.552,0 -1,0.447 -1,1l0,13.364c-2.232,0.465 -3.916,2.445 -3.916,4.814s1.684,4.351 3.916,4.813l0,16.104c0,0.553 0.448,1 1,1c0.553,0 1,-0.447 1,-1l0,-16.105c2.233,-0.463 3.916,-2.443 3.916,-4.813s-1.682,-4.349 -3.916,-4.814zm-1,7.732c-1.607,0 -2.916,-1.308 -2.916,-2.917s1.309,-2.917 2.916,-2.917c1.608,0 2.916,1.309 2.916,2.917s-1.307,2.917 -2.916,2.917zm27.871,-12.825l0,-8.27c0,-0.553 -0.447,-1 -1,-1s-1,0.447 -1,1l0,8.27c-2.231,0.463 -3.916,2.445 -3.916,4.813s1.685,4.35 3.916,4.813l0,21.198c0,0.554 0.447,1 1,1s1,-0.446 1,-1l0,-21.197c2.232,-0.464 3.916,-2.445 3.916,-4.813c0,-2.37 -1.684,-4.351 -3.916,-4.814zm-1,7.73c-1.606,0 -2.916,-1.31 -2.916,-2.917c0,-1.608 1.31,-2.916 2.916,-2.916c1.607,0 2.916,1.308 2.916,2.916c0,1.608 -1.309,2.917 -2.916,2.917zm-12.434,4.522l0,-20.522c0,-0.553 -0.447,-1 -1,-1c-0.554,0 -1,0.447 -1,1l0,20.521c-2.233,0.463 -3.917,2.444 -3.917,4.813s1.684,4.351 3.917,4.813l0,8.946c0,0.554 0.448,1 1,1s1,-0.446 1,-1l0,-8.946c2.232,-0.463 3.916,-2.445 3.916,-4.813s-1.684,-4.349 -3.916,-4.812zm-1,7.729c-1.608,0 -2.917,-1.31 -2.917,-2.917s1.308,-2.916 2.917,-2.916c1.607,0 2.916,1.309 2.916,2.916c0,1.609 -1.309,2.917 -2.916,2.917z"/>
 </g>
</svg>